<mxfile host="app.diagrams.net" agent="Mozilla/5.0 (Windows NT 10.0; Win64; x64; rv:128.0) Gecko/20100101 Firefox/128.0" version="26.2.14" pages="2">
  <diagram name="Page-1" id="tWruBMtmsrTLTYxl1XH-">
    <mxGraphModel dx="1810" dy="677" grid="0" gridSize="10" guides="1" tooltips="1" connect="1" arrows="1" fold="1" page="1" pageScale="1" pageWidth="827" pageHeight="1169" math="0" shadow="0">
      <root>
        <mxCell id="0" />
        <mxCell id="1" parent="0" />
        <mxCell id="x6ums51FWqF35U17DFaU-1" value="" style="rounded=0;whiteSpace=wrap;html=1;" vertex="1" parent="1">
          <mxGeometry x="174" y="47" width="324" height="434" as="geometry" />
        </mxCell>
        <mxCell id="x6ums51FWqF35U17DFaU-3" value="" style="rounded=0;whiteSpace=wrap;html=1;" vertex="1" parent="1">
          <mxGeometry x="280" y="123" width="123" height="270" as="geometry" />
        </mxCell>
        <mxCell id="x6ums51FWqF35U17DFaU-4" value="" style="verticalLabelPosition=bottom;html=1;verticalAlign=top;align=center;shape=mxgraph.floorplan.chair;" vertex="1" parent="1">
          <mxGeometry x="324.17" y="82" width="23.66" height="30" as="geometry" />
        </mxCell>
        <mxCell id="x6ums51FWqF35U17DFaU-11" value="" style="verticalLabelPosition=bottom;html=1;verticalAlign=top;align=center;shape=mxgraph.floorplan.chair;rotation=-180;" vertex="1" parent="1">
          <mxGeometry x="320" y="409" width="23.66" height="30" as="geometry" />
        </mxCell>
        <mxCell id="x6ums51FWqF35U17DFaU-12" value="" style="group" vertex="1" connectable="0" parent="1">
          <mxGeometry x="235.83" y="134.17" width="34.00000000000003" height="238.66000000000005" as="geometry" />
        </mxCell>
        <mxCell id="x6ums51FWqF35U17DFaU-5" value="" style="verticalLabelPosition=bottom;html=1;verticalAlign=top;align=center;shape=mxgraph.floorplan.chair;rotation=-90;" vertex="1" parent="x6ums51FWqF35U17DFaU-12">
          <mxGeometry x="5.1699999999999875" y="-3.1699999999999875" width="23.66" height="30" as="geometry" />
        </mxCell>
        <mxCell id="x6ums51FWqF35U17DFaU-6" value="" style="verticalLabelPosition=bottom;html=1;verticalAlign=top;align=center;shape=mxgraph.floorplan.chair;rotation=-90;" vertex="1" parent="x6ums51FWqF35U17DFaU-12">
          <mxGeometry x="3.1699999999999875" y="45.83000000000001" width="23.66" height="30" as="geometry" />
        </mxCell>
        <mxCell id="x6ums51FWqF35U17DFaU-7" value="" style="verticalLabelPosition=bottom;html=1;verticalAlign=top;align=center;shape=mxgraph.floorplan.chair;rotation=-90;" vertex="1" parent="x6ums51FWqF35U17DFaU-12">
          <mxGeometry x="5.1699999999999875" y="127.83000000000001" width="23.66" height="30" as="geometry" />
        </mxCell>
        <mxCell id="x6ums51FWqF35U17DFaU-8" value="" style="verticalLabelPosition=bottom;html=1;verticalAlign=top;align=center;shape=mxgraph.floorplan.chair;rotation=-90;" vertex="1" parent="x6ums51FWqF35U17DFaU-12">
          <mxGeometry x="5.1699999999999875" y="85.83000000000001" width="23.66" height="30" as="geometry" />
        </mxCell>
        <mxCell id="x6ums51FWqF35U17DFaU-9" value="" style="verticalLabelPosition=bottom;html=1;verticalAlign=top;align=center;shape=mxgraph.floorplan.chair;rotation=-90;" vertex="1" parent="x6ums51FWqF35U17DFaU-12">
          <mxGeometry x="7.1699999999999875" y="169.83" width="23.66" height="30" as="geometry" />
        </mxCell>
        <mxCell id="x6ums51FWqF35U17DFaU-10" value="" style="verticalLabelPosition=bottom;html=1;verticalAlign=top;align=center;shape=mxgraph.floorplan.chair;rotation=-90;" vertex="1" parent="x6ums51FWqF35U17DFaU-12">
          <mxGeometry x="5.1699999999999875" y="211.83" width="23.66" height="30" as="geometry" />
        </mxCell>
        <mxCell id="x6ums51FWqF35U17DFaU-13" value="" style="group;rotation=-180;" vertex="1" connectable="0" parent="1">
          <mxGeometry x="414" y="133" width="34.00000000000003" height="238.66000000000005" as="geometry" />
        </mxCell>
        <mxCell id="x6ums51FWqF35U17DFaU-14" value="" style="verticalLabelPosition=bottom;html=1;verticalAlign=top;align=center;shape=mxgraph.floorplan.chair;rotation=-270;" vertex="1" parent="x6ums51FWqF35U17DFaU-13">
          <mxGeometry x="5" y="212" width="23.66" height="30" as="geometry" />
        </mxCell>
        <mxCell id="x6ums51FWqF35U17DFaU-15" value="" style="verticalLabelPosition=bottom;html=1;verticalAlign=top;align=center;shape=mxgraph.floorplan.chair;rotation=-270;" vertex="1" parent="x6ums51FWqF35U17DFaU-13">
          <mxGeometry x="7" y="163" width="23.66" height="30" as="geometry" />
        </mxCell>
        <mxCell id="x6ums51FWqF35U17DFaU-16" value="" style="verticalLabelPosition=bottom;html=1;verticalAlign=top;align=center;shape=mxgraph.floorplan.chair;rotation=-270;" vertex="1" parent="x6ums51FWqF35U17DFaU-13">
          <mxGeometry x="5" y="81" width="23.66" height="30" as="geometry" />
        </mxCell>
        <mxCell id="x6ums51FWqF35U17DFaU-17" value="" style="verticalLabelPosition=bottom;html=1;verticalAlign=top;align=center;shape=mxgraph.floorplan.chair;rotation=-270;" vertex="1" parent="x6ums51FWqF35U17DFaU-13">
          <mxGeometry x="5" y="123" width="23.66" height="30" as="geometry" />
        </mxCell>
        <mxCell id="x6ums51FWqF35U17DFaU-18" value="" style="verticalLabelPosition=bottom;html=1;verticalAlign=top;align=center;shape=mxgraph.floorplan.chair;rotation=-270;" vertex="1" parent="x6ums51FWqF35U17DFaU-13">
          <mxGeometry x="3" y="39" width="23.66" height="30" as="geometry" />
        </mxCell>
        <mxCell id="x6ums51FWqF35U17DFaU-19" value="" style="verticalLabelPosition=bottom;html=1;verticalAlign=top;align=center;shape=mxgraph.floorplan.chair;rotation=-270;" vertex="1" parent="x6ums51FWqF35U17DFaU-13">
          <mxGeometry x="5" y="-3" width="23.66" height="30" as="geometry" />
        </mxCell>
        <mxCell id="x6ums51FWqF35U17DFaU-29" value="" style="group" vertex="1" connectable="0" parent="1">
          <mxGeometry x="375.71999999999997" y="138.68" width="18.600000000000023" height="221.94" as="geometry" />
        </mxCell>
        <mxCell id="x6ums51FWqF35U17DFaU-20" value="" style="shape=mxgraph.signs.food.restaurant_1;html=1;pointerEvents=1;fillColor=#000000;strokeColor=none;verticalLabelPosition=bottom;verticalAlign=top;align=center;rotation=-90;" vertex="1" parent="x6ums51FWqF35U17DFaU-29">
          <mxGeometry x="5.980000000000018" y="-5.980000000000018" width="6.64" height="18.6" as="geometry" />
        </mxCell>
        <mxCell id="x6ums51FWqF35U17DFaU-22" value="" style="shape=mxgraph.signs.food.restaurant_1;html=1;pointerEvents=1;fillColor=#000000;strokeColor=none;verticalLabelPosition=bottom;verticalAlign=top;align=center;rotation=-90;" vertex="1" parent="x6ums51FWqF35U17DFaU-29">
          <mxGeometry x="5.980000000000018" y="40.31999999999999" width="6.64" height="18.6" as="geometry" />
        </mxCell>
        <mxCell id="x6ums51FWqF35U17DFaU-23" value="" style="shape=mxgraph.signs.food.restaurant_1;html=1;pointerEvents=1;fillColor=#000000;strokeColor=none;verticalLabelPosition=bottom;verticalAlign=top;align=center;rotation=-90;" vertex="1" parent="x6ums51FWqF35U17DFaU-29">
          <mxGeometry x="5.980000000000018" y="123.32" width="6.64" height="18.6" as="geometry" />
        </mxCell>
        <mxCell id="x6ums51FWqF35U17DFaU-24" value="" style="shape=mxgraph.signs.food.restaurant_1;html=1;pointerEvents=1;fillColor=#000000;strokeColor=none;verticalLabelPosition=bottom;verticalAlign=top;align=center;rotation=-90;" vertex="1" parent="x6ums51FWqF35U17DFaU-29">
          <mxGeometry x="5.980000000000018" y="81.32" width="6.64" height="18.6" as="geometry" />
        </mxCell>
        <mxCell id="x6ums51FWqF35U17DFaU-25" value="" style="shape=mxgraph.signs.food.restaurant_1;html=1;pointerEvents=1;fillColor=#000000;strokeColor=none;verticalLabelPosition=bottom;verticalAlign=top;align=center;rotation=-90;" vertex="1" parent="x6ums51FWqF35U17DFaU-29">
          <mxGeometry x="5.980000000000018" y="161.32" width="6.64" height="18.6" as="geometry" />
        </mxCell>
        <mxCell id="x6ums51FWqF35U17DFaU-28" value="" style="shape=mxgraph.signs.food.restaurant_1;html=1;pointerEvents=1;fillColor=#000000;strokeColor=none;verticalLabelPosition=bottom;verticalAlign=top;align=center;rotation=-90;" vertex="1" parent="x6ums51FWqF35U17DFaU-29">
          <mxGeometry x="5.980000000000018" y="209.32" width="6.64" height="18.6" as="geometry" />
        </mxCell>
        <mxCell id="x6ums51FWqF35U17DFaU-30" value="" style="group;rotation=-180;" vertex="1" connectable="0" parent="1">
          <mxGeometry x="285" y="147" width="18.600000000000023" height="221.94" as="geometry" />
        </mxCell>
        <mxCell id="x6ums51FWqF35U17DFaU-31" value="" style="shape=mxgraph.signs.food.restaurant_1;html=1;pointerEvents=1;fillColor=#000000;strokeColor=none;verticalLabelPosition=bottom;verticalAlign=top;align=center;rotation=-270;" vertex="1" parent="x6ums51FWqF35U17DFaU-30">
          <mxGeometry x="6" y="201" width="6.64" height="18.6" as="geometry" />
        </mxCell>
        <mxCell id="x6ums51FWqF35U17DFaU-32" value="" style="shape=mxgraph.signs.food.restaurant_1;html=1;pointerEvents=1;fillColor=#000000;strokeColor=none;verticalLabelPosition=bottom;verticalAlign=top;align=center;rotation=-270;" vertex="1" parent="x6ums51FWqF35U17DFaU-30">
          <mxGeometry x="6" y="163" width="6.64" height="18.6" as="geometry" />
        </mxCell>
        <mxCell id="x6ums51FWqF35U17DFaU-33" value="" style="shape=mxgraph.signs.food.restaurant_1;html=1;pointerEvents=1;fillColor=#000000;strokeColor=none;verticalLabelPosition=bottom;verticalAlign=top;align=center;rotation=-270;" vertex="1" parent="x6ums51FWqF35U17DFaU-30">
          <mxGeometry x="6" y="80" width="6.64" height="18.6" as="geometry" />
        </mxCell>
        <mxCell id="x6ums51FWqF35U17DFaU-34" value="" style="shape=mxgraph.signs.food.restaurant_1;html=1;pointerEvents=1;fillColor=#000000;strokeColor=none;verticalLabelPosition=bottom;verticalAlign=top;align=center;rotation=-270;" vertex="1" parent="x6ums51FWqF35U17DFaU-30">
          <mxGeometry x="6" y="122" width="6.64" height="18.6" as="geometry" />
        </mxCell>
        <mxCell id="x6ums51FWqF35U17DFaU-35" value="" style="shape=mxgraph.signs.food.restaurant_1;html=1;pointerEvents=1;fillColor=#000000;strokeColor=none;verticalLabelPosition=bottom;verticalAlign=top;align=center;rotation=-270;" vertex="1" parent="x6ums51FWqF35U17DFaU-30">
          <mxGeometry x="6" y="40" width="6.64" height="18.6" as="geometry" />
        </mxCell>
        <mxCell id="x6ums51FWqF35U17DFaU-36" value="" style="shape=mxgraph.signs.food.restaurant_1;html=1;pointerEvents=1;fillColor=#000000;strokeColor=none;verticalLabelPosition=bottom;verticalAlign=top;align=center;rotation=-270;" vertex="1" parent="x6ums51FWqF35U17DFaU-30">
          <mxGeometry x="6" y="-9" width="6.64" height="18.6" as="geometry" />
        </mxCell>
        <mxCell id="x6ums51FWqF35U17DFaU-37" value="" style="shape=mxgraph.signs.food.restaurant_1;html=1;pointerEvents=1;fillColor=#000000;strokeColor=none;verticalLabelPosition=bottom;verticalAlign=top;align=center;rotation=-180;" vertex="1" parent="1">
          <mxGeometry x="332.68" y="128.39999999999998" width="6.64" height="18.6" as="geometry" />
        </mxCell>
        <mxCell id="x6ums51FWqF35U17DFaU-38" value="" style="shape=mxgraph.signs.food.restaurant_1;html=1;pointerEvents=1;fillColor=#000000;strokeColor=none;verticalLabelPosition=bottom;verticalAlign=top;align=center;rotation=0;" vertex="1" parent="1">
          <mxGeometry x="328.51" y="368.93999999999994" width="6.64" height="18.6" as="geometry" />
        </mxCell>
      </root>
    </mxGraphModel>
  </diagram>
  <diagram id="A_kBxkvLFL75MYBMF7-r" name="Page-2">
    <mxGraphModel dx="1056" dy="434" grid="0" gridSize="10" guides="1" tooltips="1" connect="1" arrows="1" fold="1" page="1" pageScale="1" pageWidth="827" pageHeight="1169" math="0" shadow="0">
      <root>
        <mxCell id="0" />
        <mxCell id="1" parent="0" />
        <mxCell id="VQsye9fHnqL1SBk7j3_3-1" value="" style="rounded=0;whiteSpace=wrap;html=1;" vertex="1" parent="1">
          <mxGeometry x="136.88" y="18" width="604" height="386" as="geometry" />
        </mxCell>
        <mxCell id="VQsye9fHnqL1SBk7j3_3-2" value="" style="rounded=1;whiteSpace=wrap;html=1;" vertex="1" parent="1">
          <mxGeometry x="165" y="50" width="517" height="54" as="geometry" />
        </mxCell>
        <mxCell id="VQsye9fHnqL1SBk7j3_3-3" value="&lt;font style=&quot;font-size: 24px;&quot;&gt;Altar&lt;/font&gt;" style="text;html=1;align=center;verticalAlign=middle;whiteSpace=wrap;rounded=0;" vertex="1" parent="1">
          <mxGeometry x="393.5" y="59" width="82.5" height="37" as="geometry" />
        </mxCell>
        <mxCell id="VQsye9fHnqL1SBk7j3_3-4" value="" style="rounded=0;whiteSpace=wrap;html=1;" vertex="1" parent="1">
          <mxGeometry x="381.06" y="147" width="101.87" height="42" as="geometry" />
        </mxCell>
        <mxCell id="VQsye9fHnqL1SBk7j3_3-5" value="" style="verticalLabelPosition=bottom;html=1;verticalAlign=top;align=center;shape=mxgraph.floorplan.chair;" vertex="1" parent="1">
          <mxGeometry x="401" y="120" width="15.77" height="20" as="geometry" />
        </mxCell>
        <mxCell id="VQsye9fHnqL1SBk7j3_3-6" value="" style="verticalLabelPosition=bottom;html=1;verticalAlign=top;align=center;shape=mxgraph.floorplan.chair;" vertex="1" parent="1">
          <mxGeometry x="444" y="120" width="15.77" height="20" as="geometry" />
        </mxCell>
        <mxCell id="VQsye9fHnqL1SBk7j3_3-19" value="" style="group" vertex="1" connectable="0" parent="1">
          <mxGeometry x="304" y="219" width="277.77" height="20" as="geometry" />
        </mxCell>
        <mxCell id="VQsye9fHnqL1SBk7j3_3-7" value="" style="verticalLabelPosition=bottom;html=1;verticalAlign=top;align=center;shape=mxgraph.floorplan.chair;rotation=-180;" vertex="1" parent="VQsye9fHnqL1SBk7j3_3-19">
          <mxGeometry width="15.77" height="20" as="geometry" />
        </mxCell>
        <mxCell id="VQsye9fHnqL1SBk7j3_3-8" value="" style="verticalLabelPosition=bottom;html=1;verticalAlign=top;align=center;shape=mxgraph.floorplan.chair;rotation=-180;" vertex="1" parent="VQsye9fHnqL1SBk7j3_3-19">
          <mxGeometry x="40" width="15.77" height="20" as="geometry" />
        </mxCell>
        <mxCell id="VQsye9fHnqL1SBk7j3_3-12" value="" style="verticalLabelPosition=bottom;html=1;verticalAlign=top;align=center;shape=mxgraph.floorplan.chair;rotation=-180;" vertex="1" parent="VQsye9fHnqL1SBk7j3_3-19">
          <mxGeometry x="262" width="15.77" height="20" as="geometry" />
        </mxCell>
        <mxCell id="VQsye9fHnqL1SBk7j3_3-13" value="" style="verticalLabelPosition=bottom;html=1;verticalAlign=top;align=center;shape=mxgraph.floorplan.chair;rotation=-180;" vertex="1" parent="VQsye9fHnqL1SBk7j3_3-19">
          <mxGeometry x="217" width="15.77" height="20" as="geometry" />
        </mxCell>
        <mxCell id="VQsye9fHnqL1SBk7j3_3-14" value="" style="verticalLabelPosition=bottom;html=1;verticalAlign=top;align=center;shape=mxgraph.floorplan.chair;rotation=-180;" vertex="1" parent="VQsye9fHnqL1SBk7j3_3-19">
          <mxGeometry x="172" width="15.77" height="20" as="geometry" />
        </mxCell>
        <mxCell id="VQsye9fHnqL1SBk7j3_3-15" value="" style="verticalLabelPosition=bottom;html=1;verticalAlign=top;align=center;shape=mxgraph.floorplan.chair;rotation=-180;" vertex="1" parent="VQsye9fHnqL1SBk7j3_3-19">
          <mxGeometry x="127" width="15.77" height="20" as="geometry" />
        </mxCell>
        <mxCell id="VQsye9fHnqL1SBk7j3_3-16" value="" style="verticalLabelPosition=bottom;html=1;verticalAlign=top;align=center;shape=mxgraph.floorplan.chair;rotation=-180;" vertex="1" parent="VQsye9fHnqL1SBk7j3_3-19">
          <mxGeometry x="80" width="15.77" height="20" as="geometry" />
        </mxCell>
        <mxCell id="VQsye9fHnqL1SBk7j3_3-20" value="" style="group" vertex="1" connectable="0" parent="1">
          <mxGeometry x="304" y="263" width="277.77" height="20" as="geometry" />
        </mxCell>
        <mxCell id="VQsye9fHnqL1SBk7j3_3-21" value="" style="verticalLabelPosition=bottom;html=1;verticalAlign=top;align=center;shape=mxgraph.floorplan.chair;rotation=-180;" vertex="1" parent="VQsye9fHnqL1SBk7j3_3-20">
          <mxGeometry width="15.77" height="20" as="geometry" />
        </mxCell>
        <mxCell id="VQsye9fHnqL1SBk7j3_3-22" value="" style="verticalLabelPosition=bottom;html=1;verticalAlign=top;align=center;shape=mxgraph.floorplan.chair;rotation=-180;" vertex="1" parent="VQsye9fHnqL1SBk7j3_3-20">
          <mxGeometry x="40" width="15.77" height="20" as="geometry" />
        </mxCell>
        <mxCell id="VQsye9fHnqL1SBk7j3_3-23" value="" style="verticalLabelPosition=bottom;html=1;verticalAlign=top;align=center;shape=mxgraph.floorplan.chair;rotation=-180;" vertex="1" parent="VQsye9fHnqL1SBk7j3_3-20">
          <mxGeometry x="262" width="15.77" height="20" as="geometry" />
        </mxCell>
        <mxCell id="VQsye9fHnqL1SBk7j3_3-24" value="" style="verticalLabelPosition=bottom;html=1;verticalAlign=top;align=center;shape=mxgraph.floorplan.chair;rotation=-180;" vertex="1" parent="VQsye9fHnqL1SBk7j3_3-20">
          <mxGeometry x="217" width="15.77" height="20" as="geometry" />
        </mxCell>
        <mxCell id="VQsye9fHnqL1SBk7j3_3-25" value="" style="verticalLabelPosition=bottom;html=1;verticalAlign=top;align=center;shape=mxgraph.floorplan.chair;rotation=-180;" vertex="1" parent="VQsye9fHnqL1SBk7j3_3-20">
          <mxGeometry x="172" width="15.77" height="20" as="geometry" />
        </mxCell>
        <mxCell id="VQsye9fHnqL1SBk7j3_3-26" value="" style="verticalLabelPosition=bottom;html=1;verticalAlign=top;align=center;shape=mxgraph.floorplan.chair;rotation=-180;" vertex="1" parent="VQsye9fHnqL1SBk7j3_3-20">
          <mxGeometry x="127" width="15.77" height="20" as="geometry" />
        </mxCell>
        <mxCell id="VQsye9fHnqL1SBk7j3_3-27" value="" style="verticalLabelPosition=bottom;html=1;verticalAlign=top;align=center;shape=mxgraph.floorplan.chair;rotation=-180;" vertex="1" parent="VQsye9fHnqL1SBk7j3_3-20">
          <mxGeometry x="80" width="15.77" height="20" as="geometry" />
        </mxCell>
        <mxCell id="VQsye9fHnqL1SBk7j3_3-28" value="" style="group" vertex="1" connectable="0" parent="1">
          <mxGeometry x="306" y="305" width="277.77" height="20" as="geometry" />
        </mxCell>
        <mxCell id="VQsye9fHnqL1SBk7j3_3-29" value="" style="verticalLabelPosition=bottom;html=1;verticalAlign=top;align=center;shape=mxgraph.floorplan.chair;rotation=-180;" vertex="1" parent="VQsye9fHnqL1SBk7j3_3-28">
          <mxGeometry width="15.77" height="20" as="geometry" />
        </mxCell>
        <mxCell id="VQsye9fHnqL1SBk7j3_3-30" value="" style="verticalLabelPosition=bottom;html=1;verticalAlign=top;align=center;shape=mxgraph.floorplan.chair;rotation=-180;" vertex="1" parent="VQsye9fHnqL1SBk7j3_3-28">
          <mxGeometry x="40" width="15.77" height="20" as="geometry" />
        </mxCell>
        <mxCell id="VQsye9fHnqL1SBk7j3_3-31" value="" style="verticalLabelPosition=bottom;html=1;verticalAlign=top;align=center;shape=mxgraph.floorplan.chair;rotation=-180;" vertex="1" parent="VQsye9fHnqL1SBk7j3_3-28">
          <mxGeometry x="262" width="15.77" height="20" as="geometry" />
        </mxCell>
        <mxCell id="VQsye9fHnqL1SBk7j3_3-32" value="" style="verticalLabelPosition=bottom;html=1;verticalAlign=top;align=center;shape=mxgraph.floorplan.chair;rotation=-180;" vertex="1" parent="VQsye9fHnqL1SBk7j3_3-28">
          <mxGeometry x="217" width="15.77" height="20" as="geometry" />
        </mxCell>
        <mxCell id="VQsye9fHnqL1SBk7j3_3-33" value="" style="verticalLabelPosition=bottom;html=1;verticalAlign=top;align=center;shape=mxgraph.floorplan.chair;rotation=-180;" vertex="1" parent="VQsye9fHnqL1SBk7j3_3-28">
          <mxGeometry x="172" width="15.77" height="20" as="geometry" />
        </mxCell>
        <mxCell id="VQsye9fHnqL1SBk7j3_3-34" value="" style="verticalLabelPosition=bottom;html=1;verticalAlign=top;align=center;shape=mxgraph.floorplan.chair;rotation=-180;" vertex="1" parent="VQsye9fHnqL1SBk7j3_3-28">
          <mxGeometry x="127" width="15.77" height="20" as="geometry" />
        </mxCell>
        <mxCell id="VQsye9fHnqL1SBk7j3_3-35" value="" style="verticalLabelPosition=bottom;html=1;verticalAlign=top;align=center;shape=mxgraph.floorplan.chair;rotation=-180;" vertex="1" parent="VQsye9fHnqL1SBk7j3_3-28">
          <mxGeometry x="80" width="15.77" height="20" as="geometry" />
        </mxCell>
        <mxCell id="VQsye9fHnqL1SBk7j3_3-36" value="" style="whiteSpace=wrap;html=1;aspect=fixed;" vertex="1" parent="1">
          <mxGeometry x="534" y="151" width="21" height="21" as="geometry" />
        </mxCell>
        <mxCell id="VQsye9fHnqL1SBk7j3_3-37" value="MC" style="text;html=1;align=center;verticalAlign=middle;whiteSpace=wrap;rounded=0;" vertex="1" parent="1">
          <mxGeometry x="503.25" y="117" width="82.5" height="37" as="geometry" />
        </mxCell>
      </root>
    </mxGraphModel>
  </diagram>
</mxfile>
